<?xml version="1.0"?>
<svg xmlns="http://www.w3.org/2000/svg" id="outline" viewBox="0 0 512 512" width="512px" height="512px"><g transform="matrix(0.499837 0 0 0.499837 128.042 128.042)"><path d="M88,335.13281V488a7.99977,7.99977,0,0,0,8,8H416a7.99977,7.99977,0,0,0,8-8V335.13281a72.01494,72.01494,0,0,0-30.9873-59.17724l-73.7306-51.098A79.57562,79.57562,0,0,0,336,176V64a32.036,32.036,0,0,0-32-32h-4.30493A32.01141,32.01141,0,0,0,272,16H240a64.0727,64.0727,0,0,0-64,64v96a79.57562,79.57562,0,0,0,16.7179,48.8576l-73.73011,51.098A72.01414,72.01414,0,0,0,88,335.13281Zm72-68.13354,12.56543-8.7085L189.739,289.20312,160,294.46143Zm64-17.699V256a7.99868,7.99868,0,0,0,.23877,1.94043l7.63769,30.551-4.45019,35.60266-41.64563-74.96186,18.08215-12.53149A80.15643,80.15643,0,0,0,224,249.30023Zm84.13733-12.69952,18.082,12.53149-41.64563,74.96192-4.45019-35.60266,7.63769-30.551A7.99868,7.99868,0,0,0,288,256v-6.69977A80.15732,80.15732,0,0,0,308.13733,236.60071ZM247.062,296h17.876l6.47339,51.78662L256,375.52686l-15.41138-27.74024ZM264,394.073l23.92407-43.06348.01392-.00171-.00244-.019,23.80883-42.85571,29.28345,28.37475L264,426.37354Zm75.43457-135.78223L352,266.999v27.46241l-29.739-5.25831ZM272,255.01514,265.75391,280H246.24609L240,255.01514v-.625a80.31495,80.31495,0,0,0,32,0Zm-47.93555,95.97363-.00244.019.01392.00171L248,394.073v32.30054l-77.02783-89.86573,29.28345-28.37475ZM408,335.13281V480H264V450.95972l94.07422-109.75318a8.00007,8.00007,0,0,0-.50733-10.95166l-23.43078-22.70361,24.47082,4.32666A8.00073,8.00073,0,0,0,368,304V278.0874L383.89893,289.106A56.01248,56.01248,0,0,1,408,335.13281ZM320,64V76.68652L315.31348,72A27.1768,27.1768,0,0,0,304,65.18524V48A16.01833,16.01833,0,0,1,320,64ZM240,32h32a16.01833,16.01833,0,0,1,16,16V65.18524A27.1768,27.1768,0,0,0,276.68652,72a54.26994,54.26994,0,0,1-38.62744,16H192V80A48.05436,48.05436,0,0,1,240,32Zm-48,72h46.05908A70.16466,70.16466,0,0,0,288,83.31348a11.31426,11.31426,0,0,1,16,0L320,99.314V176a64,64,0,0,1-128,0ZM128.10156,289.106,144,278.08777V304a8.0008,8.0008,0,0,0,9.39307,7.87793l24.47082-4.32666-23.43078,22.70361a8.00007,8.00007,0,0,0-.50733,10.95166L248,450.95972V480H104V335.13281A56.01168,56.01168,0,0,1,128.10156,289.106Z" data-original="#000000" class="active-path" fill="#000000"/><rect x="208" y="120" width="32" height="16" data-original="#000000" class="active-path" fill="#000000"/><path d="M240,208h8a24.02687,24.02687,0,0,0,24-24V168H256v16a8.00917,8.00917,0,0,1-8,8h-8Z" data-original="#000000" class="active-path" fill="#000000"/><circle cx="224" cy="152" r="8" data-original="#000000" class="active-path" fill="#000000"/><rect x="272" y="120" width="32" height="16" data-original="#000000" class="active-path" fill="#000000"/><circle cx="288" cy="152" r="8" data-original="#000000" class="active-path" fill="#000000"/></g> </svg>
